<?xml version="1.0" standalone="no"?>
<!DOCTYPE svg PUBLIC "-//W3C//DTD SVG 20010904//EN"
 "http://www.w3.org/TR/2001/REC-SVG-20010904/DTD/svg10.dtd">
<svg version="1.0" xmlns="http://www.w3.org/2000/svg"
 width="1280.000000pt" height="640.000000pt" viewBox="0 0 1280.000000 640.000000"
 preserveAspectRatio="xMidYMid meet">
<metadata>
Created by potrace 1.15, written by Peter Selinger 2001-2017
</metadata>
<g transform="translate(0.000000,640.000000) scale(0.100000,-0.100000)"
fill="#000000" stroke="none">
<path d="M81 5342 c-19 -9 -44 -30 -55 -45 -20 -27 -21 -43 -24 -358 -3 -311
-2 -332 17 -374 16 -36 29 -50 63 -65 40 -18 67 -20 353 -20 174 0 326 4 346
10 19 5 48 24 65 41 l29 30 3 350 c3 339 2 352 -18 384 -39 63 -51 65 -417 65
-292 0 -332 -2 -362 -18z"/>
<path d="M1211 5342 c-19 -9 -44 -30 -55 -45 -20 -28 -21 -40 -21 -377 0 -477
-37 -440 433 -440 349 0 363 2 412 55 l25 27 0 358 0 358 -25 27 c-49 53 -63
55 -412 55 -288 0 -327 -2 -357 -18z"/>
<path d="M2373 5351 c-49 -13 -83 -39 -99 -77 -12 -29 -14 -95 -12 -374 l3
-340 38 -37 37 -38 348 -3 c322 -2 349 -1 381 16 69 37 71 47 71 422 0 470 34
434 -420 437 -173 1 -330 -2 -347 -6z"/>
<path d="M3458 5335 c-14 -8 -36 -30 -47 -49 -20 -32 -21 -46 -21 -372 0 -319
1 -341 20 -371 37 -62 43 -63 421 -63 325 0 343 1 374 20 63 39 65 52 65 415
0 363 -2 376 -65 415 -31 19 -49 20 -376 20 -280 -1 -349 -3 -371 -15z"/>
<path d="M4593 5334 c-18 -9 -42 -31 -53 -49 -19 -31 -20 -49 -20 -371 0 -476
-37 -438 425 -442 327 -3 330 -2 374 20 80 41 81 45 81 418 0 363 -2 372 -69
417 -34 23 -37 23 -370 23 -287 0 -341 -3 -368 -16z"/>
<path d="M5725 5330 c-75 -37 -75 -35 -75 -420 0 -384 0 -384 72 -421 34 -18
62 -19 364 -19 361 0 373 2 417 64 22 31 22 35 22 376 0 477 36 440 -437 440
-303 0 -326 -1 -363 -20z"/>
<path d="M6874 5339 c-46 -13 -91 -69 -99 -121 -3 -24 -5 -178 -3 -343 3 -333
6 -346 71 -385 30 -19 52 -20 370 -20 372 0 374 0 419 62 l23 33 0 342 c0 329
-1 343 -21 369 -11 15 -33 37 -48 48 -26 20 -41 21 -354 23 -181 1 -341 -2
-358 -8z"/>
<path d="M7985 5330 c-31 -12 -64 -53 -75 -91 -13 -45 -13 -623 0 -671 6 -20
26 -50 46 -67 l35 -31 347 0 c327 0 349 1 379 20 62 37 63 44 63 415 0 371 -1
378 -63 415 -30 19 -52 20 -372 19 -187 0 -349 -4 -360 -9z"/>
<path d="M9099 5317 c-67 -45 -69 -55 -69 -415 0 -466 -28 -436 400 -440 362
-4 390 -1 439 43 l36 33 3 354 c2 332 1 355 -17 384 -38 62 -53 64 -424 64
-331 0 -334 0 -368 -23z"/>
<path d="M10243 5310 c-62 -37 -63 -44 -63 -417 0 -318 1 -340 20 -370 41 -67
-47 -63 1291 -63 1197 0 1212 0 1244 20 63 39 65 52 65 415 0 363 -2 376 -65
415 -32 20 -47 20 -1246 20 -1186 0 -1215 -1 -1246 -20z"/>
<path d="M80 4212 c-19 -9 -45 -32 -57 -51 -23 -34 -23 -37 -23 -371 0 -334 0
-337 23 -371 48 -72 8 -69 822 -69 696 0 732 1 772 19 77 36 78 39 78 421 0
317 -1 337 -20 369 -11 18 -36 42 -55 52 -33 18 -72 19 -770 19 -680 0 -738
-1 -770 -18z"/>
<path d="M11070 4212 c-22 -12 -44 -35 -57 -62 -22 -43 -23 -52 -23 -360 0
-288 2 -319 19 -357 14 -30 31 -48 60 -62 40 -21 52 -21 828 -21 879 0 832 -4
880 69 23 34 23 37 23 371 0 334 0 337 -23 371 -48 73 -1 69 -882 69 -746 0
-792 -1 -825 -18z"/>
<path d="M2019 4197 c-67 -45 -69 -55 -69 -411 0 -298 1 -322 20 -361 37 -76
33 -75 428 -75 339 0 350 1 376 21 55 43 56 50 56 414 0 371 -1 378 -63 415
-30 19 -52 20 -373 20 -338 0 -341 0 -375 -23z"/>
<path d="M3161 4202 c-19 -9 -44 -30 -55 -45 -20 -27 -21 -43 -24 -365 -3
-372 -1 -380 61 -426 27 -20 43 -21 355 -24 208 -2 340 0 362 7 20 6 49 24 65
41 l30 31 0 359 0 358 -25 27 c-51 55 -53 55 -407 55 -293 0 -332 -2 -362 -18z"/>
<path d="M4306 4210 c-15 -5 -37 -17 -48 -27 -47 -42 -48 -53 -48 -405 0 -315
1 -335 20 -366 11 -18 34 -41 52 -52 31 -19 51 -20 366 -20 359 0 361 0 412
55 l25 27 3 346 c3 486 40 446 -423 449 -181 1 -343 -2 -359 -7z"/>
<path d="M5403 4190 c-62 -37 -63 -44 -63 -412 0 -373 2 -383 71 -420 32 -17
59 -18 381 -16 l348 3 37 38 38 37 3 340 c3 378 1 393 -62 431 -29 18 -56 19
-376 19 -325 0 -347 -1 -377 -20z"/>
<path d="M6533 4191 c-62 -39 -63 -45 -63 -418 0 -318 1 -340 20 -370 37 -62
43 -63 420 -63 384 0 384 0 421 72 18 34 19 62 19 358 0 347 -2 361 -55 410
l-27 25 -351 3 c-335 2 -354 1 -384 -17z"/>
<path d="M7671 4193 c-71 -35 -71 -37 -71 -425 l0 -346 27 -33 c49 -57 61 -59
410 -59 294 0 321 2 361 20 34 15 47 29 63 65 19 43 20 63 17 374 -4 456 33
421 -443 421 -287 0 -334 -3 -364 -17z"/>
<path d="M8805 4190 c-80 -39 -80 -41 -80 -420 0 -475 -35 -440 440 -440 378
0 381 1 423 81 22 44 23 47 20 369 -3 370 -4 376 -81 411 -38 17 -69 19 -362
19 -300 0 -323 -1 -360 -20z"/>
<path d="M9967 4200 c-47 -9 -94 -53 -108 -100 -7 -22 -9 -152 -7 -355 3 -355
3 -354 71 -395 30 -19 53 -20 370 -20 373 0 380 1 417 63 19 30 20 52 20 380
l0 347 -33 36 c-23 26 -45 38 -77 45 -54 10 -599 10 -653 -1z"/>
<path d="M102 3093 c-40 -8 -90 -67 -97 -115 -3 -24 -5 -183 -3 -355 3 -297 4
-313 24 -340 11 -15 36 -36 55 -45 32 -17 101 -18 1017 -18 1080 0 1027 -3
1073 61 l24 34 0 345 c0 379 1 373 -63 417 -26 17 -77 18 -1017 19 -545 1
-1000 -1 -1013 -3z"/>
<path d="M2529 3057 c-67 -45 -69 -54 -69 -417 0 -364 2 -374 71 -415 32 -19
52 -20 374 -20 378 0 373 -1 415 68 19 30 20 53 20 371 0 322 -1 340 -20 371
-39 63 -51 65 -423 65 -331 0 -334 0 -368 -23z"/>
<path d="M3699 3071 c-50 -16 -71 -33 -90 -74 -17 -38 -19 -70 -19 -362 0
-357 2 -367 69 -412 34 -23 37 -23 368 -23 371 0 386 2 424 64 18 29 19 56 19
378 l0 347 -31 35 c-17 20 -47 40 -67 46 -43 12 -634 12 -673 1z"/>
<path d="M4805 3066 c-17 -7 -43 -28 -58 -45 l-27 -33 0 -348 0 -348 27 -33
c49 -57 61 -59 413 -59 355 0 369 2 411 61 l24 34 0 347 c0 475 37 438 -435
438 -248 -1 -332 -4 -355 -14z"/>
<path d="M5944 3069 c-18 -5 -46 -25 -63 -44 l-31 -36 0 -347 c0 -330 1 -349
20 -380 37 -60 53 -62 422 -62 469 0 432 -36 436 423 4 484 35 451 -428 454
-179 1 -339 -2 -356 -8z"/>
<path d="M7026 3039 c-22 -19 -40 -46 -46 -70 -7 -26 -10 -155 -8 -357 3 -352
3 -351 71 -392 30 -19 53 -20 372 -20 474 0 439 -31 443 390 4 361 1 390 -43
439 l-33 36 -360 3 -360 3 -36 -32z"/>
<path d="M8169 3047 c-67 -45 -69 -55 -69 -411 0 -471 -30 -440 422 -444 197
-2 332 1 355 7 22 6 52 25 68 41 l30 31 3 349 c3 387 2 392 -61 430 -30 19
-52 20 -373 20 -338 0 -341 0 -375 -23z"/>
<path d="M9311 3052 c-19 -9 -44 -30 -55 -45 -20 -28 -21 -40 -21 -377 0 -477
-37 -440 433 -440 349 0 363 2 412 55 l25 27 3 353 3 353 -27 31 c-51 61 -51
61 -411 61 -293 0 -332 -2 -362 -18z"/>
<path d="M10450 3063 c-8 -3 -26 -15 -38 -27 -51 -46 -52 -52 -52 -403 0 -367
2 -378 70 -418 35 -20 47 -20 1150 -20 1103 0 1115 0 1150 20 68 40 70 51 70
418 0 354 0 356 -55 407 l-27 25 -1126 2 c-620 1 -1134 -1 -1142 -4z"/>
<path d="M1783 1921 c-68 -42 -68 -41 -71 -392 -2 -205 1 -331 8 -357 6 -25
24 -52 45 -71 l36 -31 465 0 c522 0 507 -2 545 72 18 34 19 62 19 363 0 352 0
354 -55 405 l-27 25 -466 3 c-449 2 -468 1 -499 -17z"/>
<path d="M3143 1920 c-68 -41 -68 -40 -71 -392 -2 -202 1 -331 8 -357 6 -24
24 -51 45 -70 l36 -31 3231 0 c3222 0 3231 0 3263 20 63 39 65 52 65 409 0
348 -2 362 -55 411 l-27 25 -3231 2 c-3190 3 -3232 3 -3264 -17z"/>
<path d="M10033 1921 c-68 -42 -68 -41 -71 -393 -2 -202 1 -331 8 -357 6 -24
24 -51 45 -70 l36 -31 465 0 c525 0 506 -3 544 75 19 39 20 63 20 358 0 344
-2 359 -55 407 l-27 25 -466 3 c-449 2 -468 1 -499 -17z"/>
<path d="M11393 1920 c-62 -37 -63 -44 -63 -417 0 -318 1 -340 20 -370 39 -65
13 -63 712 -63 602 0 635 1 664 19 62 37 64 54 64 418 0 367 -2 378 -71 415
-32 17 -73 18 -664 18 -607 0 -631 -1 -662 -20z"/>
<path d="M79 1893 c-57 -48 -59 -61 -59 -408 0 -347 2 -360 59 -408 l33 -27
636 0 c614 0 638 1 669 20 62 37 63 44 63 415 0 371 -1 378 -63 415 -31 19
-55 20 -669 20 l-636 0 -33 -27z"/>
</g>
</svg>
